<svg width="24" height="24" viewBox="0 0 136 165" fill="none" xmlns="http://www.w3.org/2000/svg">
<path d="M20.6957 77C32.1256 77 41.3913 86.1931 41.3913 97.5333C41.3913 112.114 53.3045 123.933 68 123.933C82.6955 123.933 94.6087 112.114 94.6087 97.5333C94.6087 86.1931 103.874 77 115.304 77C126.734 77 136 86.1931 136 97.5333C136 134.794 105.555 165 68 165C30.4446 165 0 134.794 0 97.5333C0 86.1931 9.26575 77 20.6957 77Z" fill="#FF9C40"/>
<path d="M23.1071 33.6587H17.7391C7.94208 33.6587 0 41.5701 0 51.3294C0 61.0886 7.94209 69 17.7391 69H118.261C128.058 69 136 61.0886 136 51.3294C136 41.5701 128.058 33.6587 118.261 33.6587H113.824L102.854 6.46462C101.279 2.55908 97.4777 0 93.2523 0H43.6784C39.453 0 35.6521 2.55908 34.0767 6.46462L23.1071 33.6587Z" fill="#93D900"/>
</svg>

